<svg width="26" height="26" viewBox="0 0 26 26" fill="none" xmlns="http://www.w3.org/2000/svg">
<circle cx="13" cy="13" r="13" fill="#E84142"/>
<g clip-path="url(#clip0_1199:385)">
<path d="M16.6409 13.3154C16.9985 12.7257 17.5755 12.7257 17.9331 13.3154L20.1599 17.0479C20.5175 17.6376 20.2249 18.1187 19.5097 18.1187H15.0236C14.3166 18.1187 14.024 17.6376 14.3735 17.0479L16.6409 13.3154ZM12.3336 6.12981C12.6912 5.54006 13.2601 5.54006 13.6177 6.12981L14.1134 6.98339L15.2837 8.94663C15.5681 9.50534 15.5681 10.1649 15.2837 10.7236L11.3583 17.2186C11.0008 17.7463 10.4075 18.08 9.7492 18.1187H6.49028C5.7751 18.1187 5.48253 17.6454 5.84012 17.0479L12.3336 6.12981Z" fill="white"/>
</g>
<defs>
<clipPath id="clip0_1199:385">
<rect width="14.625" height="14.625" fill="white" transform="translate(5.6875 5.6875)"/>
</clipPath>
</defs>
</svg>
