<svg width="32" height="32" viewBox="0 0 32 32" fill="none" xmlns="http://www.w3.org/2000/svg">
<circle cx="16" cy="16" r="16" fill="#627EEA"/>
<path opacity="0.85" d="M9.35938 16.1849L16.2049 20.1676V5L9.35938 16.1849Z" fill="white"/>
<path opacity="0.8" d="M16.2041 5V20.1676L23.0469 16.1849L16.2041 5Z" fill="#C0CBF6"/>
<path d="M16.2049 13.1188L9.35938 16.1846L16.2049 20.1673L23.0477 16.1846L16.2049 13.1188Z" fill="#C0CBF6"/>
<path d="M16.2049 13.1188L9.35938 16.1846L16.2049 20.1673L23.0477 16.1846L16.2049 13.1188Z" fill="#C0CBF6"/>
<path d="M16.2051 13.1188L16.2055 16.1846L16.2051 20.1673L23.0479 16.1846L16.2051 13.1188Z" fill="#C0CBF6"/>
<path d="M16.2051 13.1188L16.2055 16.1846L16.2051 20.1673L23.0479 16.1846L16.2051 13.1188Z" fill="#8197EE"/>
<path d="M9.35938 17.4622L16.2049 26.9591V21.4448L9.35938 17.4622Z" fill="#E7ECFC"/>
<path d="M16.2041 21.4448V26.9591L23.0523 17.4622L16.2041 21.4448Z" fill="#C0CBF6"/>
</svg>
