<svg width="26" height="26" viewBox="0 0 26 26" fill="none" xmlns="http://www.w3.org/2000/svg">
<circle cx="13" cy="13" r="13" fill="#1F6AF8"/>
<path d="M12.1143 6.13921C12.3092 6.04754 12.522 6 12.7374 6C12.9529 6 13.1656 6.04754 13.3606 6.13921L16.9719 8.03858C17.063 8.0793 17.1427 8.14175 17.2039 8.22045C17.2652 8.29914 17.3061 8.39167 17.3232 8.48989H17.3269V18.0233C17.318 18.1302 17.2803 18.2328 17.2177 18.32C17.1552 18.4072 17.0702 18.4759 16.9717 18.5188L13.3606 20.4167C13.1656 20.5084 12.9529 20.5559 12.7374 20.5559C12.522 20.5559 12.3092 20.5084 12.1143 20.4167L8.5029 18.5173C8.40553 18.4739 8.32181 18.4049 8.26067 18.3176C8.19953 18.2303 8.16328 18.1281 8.15579 18.0218C8.15579 18.0055 8.15579 17.9917 8.15579 17.9805V8.487C8.17088 8.38886 8.21064 8.29616 8.27134 8.21755C8.33205 8.13895 8.41172 8.07702 8.5029 8.03755L12.1143 6.13921ZM16.7581 13.8075L13.3606 15.5906C13.1657 15.6825 12.9529 15.7301 12.7374 15.7301C12.5219 15.7301 12.3092 15.6825 12.1143 15.5906L8.72397 13.8114V18.0045L12.1143 19.7761C12.2827 19.8777 12.4679 19.9488 12.6612 19.9858L12.7387 19.9906C12.9507 19.9698 13.1554 19.9019 13.3378 19.792L16.7604 17.9884V13.8075H16.7581ZM7.5686 17.816C7.55179 18.0806 7.59539 18.3455 7.69608 18.5908C7.7822 18.7477 7.9093 18.8783 8.06385 18.9686L8.0748 18.9759C8.11736 19.0041 8.16405 19.0341 8.22046 19.069L8.2874 19.1103L8.49236 19.2341L8.19835 19.7166L7.96901 19.5783L7.92976 19.5548C7.86302 19.5135 7.80806 19.479 7.75682 19.4455C7.20868 19.0768 7.00393 18.6761 7 17.8414V17.816H7.56818H7.5686ZM12.4523 11.2508C12.4273 11.2595 12.403 11.2698 12.3794 11.2818L8.76881 13.1797L8.75786 13.1859H8.75476L8.76054 13.1896L8.76901 13.1939L12.3802 15.091C12.4037 15.1031 12.4281 15.1135 12.4531 15.122L12.4523 11.2508ZM13.0223 11.2508V15.1234C13.0474 15.1149 13.0718 15.1046 13.0953 15.0925L16.7066 13.1954L16.7176 13.1892H16.7209L16.7151 13.1863L16.7066 13.1815L13.0951 11.2851C13.0716 11.2729 13.0472 11.2626 13.0221 11.2541L13.0223 11.2508ZM16.7581 9.16561L13.5168 10.8674L16.7581 12.569V9.16396V9.16561ZM8.72397 9.16953V12.5651L11.9558 10.8674L8.72397 9.16953ZM13.0951 6.63986C12.9821 6.59124 12.8604 6.56616 12.7374 6.56616C12.6144 6.56616 12.4927 6.59124 12.3798 6.63986L8.7686 8.53614L8.75765 8.54192L8.75434 8.54377L8.76013 8.54708L8.7686 8.551L12.38 10.4481C12.4928 10.4971 12.6146 10.5223 12.7376 10.5223C12.8607 10.5223 12.9824 10.4971 13.0953 10.4481L16.7066 8.551L16.7176 8.54708L16.7209 8.54522L16.7151 8.54192L16.7066 8.53758L13.0951 6.63986ZM17.2914 6.84921L17.5207 6.98712L17.562 7.00776C17.6283 7.04905 17.6833 7.08374 17.7347 7.11698C18.2835 7.48446 18.4878 7.88601 18.4922 8.72029V8.74569H17.9217C17.9385 8.48103 17.8949 8.21603 17.7943 7.97066C17.708 7.81383 17.5808 7.68338 17.4261 7.59326L17.4151 7.58604C17.3738 7.55734 17.3263 7.52782 17.2695 7.49293L17.2027 7.45473L16.9978 7.33086L17.292 6.84838L17.2914 6.84921Z" fill="white"/>
</svg>
