<svg width="51" height="50.95132433932938" viewBox="0 0 70 50.54152816501841" class="css-1j8o68f"><defs id="SvgjsDefs1102"></defs><g id="SvgjsG1103" featurekey="symbolFeature-0" transform="matrix(0.8040411677799193,0,0,0.8040411677799193,-4.479033929250119,-18.427800397453126)" fill="#95D1CC"><path xmlns="http://www.w3.org/2000/svg" fill="#95D1CC" d="M76.361,39.267c-7.485-4.999-16.221-7.642-25.259-7.642c-6.147,0-12.111,1.205-17.727,3.579  c-5.422,2.294-10.292,5.577-14.475,9.759c-4.182,4.183-7.465,9.053-9.759,14.476c-2.253,5.328-3.455,10.979-3.57,16.797  c-0.009,0.433,0.157,0.851,0.46,1.16c0.303,0.309,0.717,0.482,1.15,0.482h25.114c0.86,0,1.568-0.676,1.608-1.534  c0.433-9.194,7.987-16.396,17.197-16.396c6.604,0,12.521,3.679,15.443,9.601c0.38,0.771,1.299,1.106,2.087,0.764l23.034-10.027  c0.396-0.172,0.707-0.497,0.861-0.901s0.14-0.854-0.042-1.247C88.965,50.485,83.39,43.961,76.361,39.267z M68.701,66.77  c-1.668-2.823-3.993-5.208-6.792-6.951c-3.245-2.022-6.982-3.091-10.807-3.091c-5.282,0-10.296,2.016-14.121,5.674  c-3.437,3.289-5.592,7.596-6.164,12.256H26.84c0.245-2.408,0.844-4.751,1.789-6.985c1.229-2.903,2.987-5.512,5.228-7.753  c2.241-2.24,4.849-3.999,7.753-5.228c3.005-1.271,6.199-1.915,9.492-1.915c8.789,0,16.955,4.817,21.247,12.405L68.701,66.77z   M76.968,63.172c-2.391-4.419-5.868-8.148-10.132-10.848c-4.712-2.984-10.153-4.562-15.733-4.562  c-7.677,0-14.945,2.951-20.466,8.311c-5.133,4.982-8.233,11.531-8.83,18.584h-3.965c0.268-3.617,1.115-7.135,2.528-10.475  c1.68-3.972,4.085-7.539,7.148-10.603c3.064-3.064,6.631-5.47,10.603-7.148c4.11-1.739,8.479-2.621,12.982-2.621  c6.62,0,13.017,1.936,18.497,5.596c4.638,3.097,8.416,7.286,11.005,12.183L76.968,63.172z M85.213,59.583  c-3.103-6.02-7.729-11.099-13.456-14.756c-6.179-3.944-13.321-6.029-20.654-6.029c-10.07,0-19.591,3.886-26.808,10.942  c-6.828,6.676-10.869,15.474-11.478,24.917h-3.96c0.28-4.828,1.372-9.519,3.252-13.965c2.131-5.038,5.183-9.564,9.07-13.451  c3.887-3.888,8.413-6.939,13.452-9.071c5.215-2.205,10.757-3.324,16.472-3.324c8.399,0,16.516,2.455,23.47,7.1  c6.075,4.058,10.982,9.584,14.272,16.057L85.213,59.583z"></path></g></svg>